# xmcd
#
# Track frame offsets: 
#        150
#        17365
#        28397
#        40227
#        50497
#        61545
#        72490
#        86417
#        100465
#        110572
#        120907
#        134807
#        146900
#        158850
#        168502
#        181492
#        194787
#        206945
#
# Disc length: 2919 seconds
#
# Revision: 4
# Processed by: cddbd v1.5.2PL0 Copyright (c) Steve Scherf et al.
# Submitted via: ExactAudioCopy v0.99pb5
#
DISCID=120b6512
DTITLE=Various Artist - Country Gold - 18 Country and Western Highlights
DYEAR=1999
DGENRE=Country
TTITLE0=Bobby Bare - Sylvia's mother
TTITLE1=Dave Dudley - Get me back to Tennessee
TTITLE2=Billy Grammer - Papa and mama
TTITLE3=David Price - Jack Knife
TTITLE4=Freddy Quinn - Some broken hearts never mend
TTITLE5=Buddy Meredith - Lonely in person
TTITLE6=Dave Dudley - Think I'll send him some roses
TTITLE7=Barbara Perry - Why can't women have a good beerdrinking Song
TTITLE8=Bobby Bare - Help me make it through the night
TTITLE9=Linda Manning - Bonjour, tristesse
TTITLE10=George Kent - Doogie Ray
TTITLE11=Ferlin Husky - Out of the clear blue sky
TTITLE12=Freddy Quinn - Tennessee teardrops
TTITLE13=Dave Dudley - Rollin' on your track
TTITLE14=Ronnie Rogers - Diane
TTITLE15=George Kent - Mama bake a pie, daddy kill a chicken
TTITLE16=Rick Pilgreen - How come it took so long to say goodbye
TTITLE17=Ferlin Husky - I could sing all night
EXTD=18 Country and Western Highlights
EXTT0=
EXTT1=
EXTT2=
EXTT3=
EXTT4=
EXTT5=
EXTT6=
EXTT7=
EXTT8=
EXTT9=
EXTT10=
EXTT11=
EXTT12=
EXTT13=
EXTT14=
EXTT15=
EXTT16=
EXTT17=
PLAYORDER=
